<svg width="23" height="22" viewBox="0 0 23 22" fill="none" xmlns="http://www.w3.org/2000/svg">
<path d="M4.35126 16.6126H18.7213C19.2153 16.6126 19.6195 16.2084 19.6195 15.7144C19.6195 15.2205 19.2153 14.8163 18.7213 14.8163H4.35126C3.85728 14.8163 3.45312 15.2205 3.45312 15.7144C3.45312 16.2084 3.85728 16.6126 4.35126 16.6126ZM4.35126 12.1219H18.7213C19.2153 12.1219 19.6195 11.7177 19.6195 11.2238C19.6195 10.7298 19.2153 10.3256 18.7213 10.3256H4.35126C3.85728 10.3256 3.45312 10.7298 3.45312 11.2238C3.45312 11.7177 3.85728 12.1219 4.35126 12.1219ZM3.45312 6.73312C3.45312 7.22709 3.85728 7.63125 4.35126 7.63125H18.7213C19.2153 7.63125 19.6195 7.22709 19.6195 6.73312C19.6195 6.23915 19.2153 5.83499 18.7213 5.83499H4.35126C3.85728 5.83499 3.45312 6.23915 3.45312 6.73312Z" fill="#02131B"/>
</svg>
