<svg width="21" height="21" viewBox="0 0 21 21" fill="none" xmlns="http://www.w3.org/2000/svg">
<path d="M5.65415 3.11005L10.8312 8.28712L15.9815 3.13688C16.0952 3.01579 16.2323 2.91892 16.3844 2.85209C16.5365 2.78525 16.7005 2.74982 16.8667 2.74792C17.2224 2.74792 17.5635 2.88923 17.815 3.14076C18.0666 3.39228 18.2079 3.73342 18.2079 4.08913C18.211 4.25357 18.1805 4.41691 18.1182 4.56913C18.0559 4.72135 17.9632 4.85924 17.8457 4.97433L12.6284 10.1246L17.8457 15.3419C18.0668 15.5581 18.1964 15.851 18.2079 16.16C18.2079 16.5157 18.0666 16.8569 17.815 17.1084C17.5635 17.3599 17.2224 17.5012 16.8667 17.5012C16.6957 17.5083 16.5252 17.4798 16.3659 17.4174C16.2066 17.3551 16.0619 17.2603 15.9412 17.1391L10.8312 11.962L5.66756 17.1257C5.55423 17.2427 5.41885 17.3362 5.26922 17.4006C5.11959 17.4651 4.95868 17.4993 4.79577 17.5012C4.44006 17.5012 4.09892 17.3599 3.84739 17.1084C3.59587 16.8569 3.45456 16.5157 3.45456 16.16C3.45144 15.9956 3.48195 15.8322 3.54422 15.68C3.60649 15.5278 3.69921 15.3899 3.81669 15.2748L9.03399 10.1246L3.81669 4.90727C3.59564 4.69101 3.46602 4.39816 3.45456 4.08913C3.45456 3.73342 3.59587 3.39228 3.84739 3.14076C4.09892 2.88923 4.44006 2.74792 4.79577 2.74792C5.11766 2.75195 5.42614 2.88205 5.65415 3.11005Z" fill="#79532A"/>
</svg>
