<svg width="14" height="15" viewBox="0 0 14 15" fill="none" xmlns="http://www.w3.org/2000/svg">
<path d="M12.0528 13.4356L1.99377 13.4356L1.99377 5.53202L12.0528 5.53202M12.0528 1.9395H11.3343V0.502487L9.89732 0.502487V1.9395L4.14929 1.9395V0.502487L2.71228 0.502487V1.9395H1.99377C1.61265 1.9395 1.24714 2.0909 0.977653 2.36039C0.708161 2.62988 0.556763 2.99539 0.556763 3.37651L0.556763 13.4356C0.556763 13.8167 0.708161 14.1822 0.977653 14.4517C1.24714 14.7212 1.61265 14.8726 1.99377 14.8726L12.0528 14.8726C12.434 14.8726 12.7995 14.7212 13.069 14.4517C13.3384 14.1822 13.4898 13.8167 13.4898 13.4356L13.4898 3.37651C13.4898 2.99539 13.3384 2.62988 13.069 2.36039C12.7995 2.0909 12.434 1.9395 12.0528 1.9395ZM10.2781 7.73064L9.51652 6.96903L6.01021 10.4753L4.48698 8.9521L3.72537 9.71372L6.01021 11.9986L10.2781 7.73064Z" fill="#79532A"/>
</svg>
