<svg width="21" height="21" viewBox="0 0 21 21" fill="none" xmlns="http://www.w3.org/2000/svg">
<path d="M19.3521 7.29545C19.3521 9.70019 17.9611 12.1678 15.2185 14.6354C13.9731 15.755 12.617 16.7451 11.1713 17.5903C11.0773 17.6419 10.9719 17.6689 10.8648 17.6689C10.7576 17.6689 10.6522 17.6419 10.5583 17.5903C10.2204 17.4017 2.37744 12.9458 2.37744 7.29545C2.37744 6.30581 2.68882 5.34126 3.26747 4.53843C3.84612 3.7356 4.6627 3.13518 5.60156 2.82223C6.54041 2.50928 7.55392 2.49966 8.49854 2.79474C9.44316 3.08982 10.271 3.67463 10.8648 4.46634C11.4586 3.67463 12.2864 3.08982 13.231 2.79474C14.1756 2.49966 15.1891 2.50928 16.128 2.82223C17.0668 3.13518 17.8834 3.7356 18.4621 4.53843C19.0407 5.34126 19.3521 6.30581 19.3521 7.29545Z" fill="#79532A"/>
</svg>
