<svg width="29" height="28" viewBox="0 0 29 28" fill="none" xmlns="http://www.w3.org/2000/svg">
<path d="M26.4414 9.76305C26.4414 13.156 24.4788 16.6376 20.6091 20.1193C18.8519 21.699 16.9386 23.0959 14.8987 24.2884C14.7662 24.3612 14.6175 24.3993 14.4663 24.3993C14.3151 24.3993 14.1664 24.3612 14.0339 24.2884C13.5571 24.0223 2.49121 17.7353 2.49121 9.76305C2.49121 8.36674 2.93055 7.00582 3.74698 5.87308C4.56342 4.74033 5.71557 3.89318 7.04022 3.45163C8.36488 3.01008 9.79489 2.99651 11.1277 3.41284C12.4605 3.82918 13.6285 4.65431 14.4663 5.77136C15.3041 4.65431 16.4721 3.82918 17.8049 3.41284C19.1377 2.99651 20.5677 3.01008 21.8923 3.45163C23.217 3.89318 24.3692 4.74033 25.1856 5.87308C26.002 7.00582 26.4414 8.36674 26.4414 9.76305Z" fill="#313D47"/>
</svg>
