<svg width="19" height="19" viewBox="0 0 19 19" fill="none" xmlns="http://www.w3.org/2000/svg">
<path d="M16.273 6.65594C16.273 8.6917 15.0955 10.7807 12.7737 12.8697C11.7193 13.8175 10.5714 14.6556 9.34746 15.3711C9.26796 15.4148 9.17871 15.4377 9.088 15.4377C8.99729 15.4377 8.90805 15.4148 8.82854 15.3711C8.54247 15.2115 1.90295 11.4393 1.90295 6.65594C1.90295 5.81815 2.16655 5.0016 2.65642 4.32195C3.14628 3.64231 3.83757 3.13402 4.63236 2.86909C5.42716 2.60415 6.28516 2.59601 7.08484 2.84581C7.88452 3.09561 8.58533 3.59069 9.088 4.26092C9.59067 3.59069 10.2915 3.09561 11.0912 2.84581C11.8908 2.59601 12.7488 2.60415 13.5436 2.86909C14.3384 3.13402 15.0297 3.64231 15.5196 4.32195C16.0094 5.0016 16.273 5.81815 16.273 6.65594Z" fill="#E0404A"/>
</svg>
