<svg width="18" height="12" viewBox="0 0 18 12" fill="none" xmlns="http://www.w3.org/2000/svg">
<path d="M9.21028 0.0742149C5.46807 0.0742149 2.27222 2.40187 0.977417 5.68753C2.27222 8.97319 5.46807 11.3008 9.21028 11.3008C12.9525 11.3008 16.1483 8.97319 17.4431 5.68753C16.1483 2.40187 12.9525 0.0742149 9.21028 0.0742149ZM9.21028 9.42974C7.14458 9.42974 5.46807 7.75323 5.46807 5.68753C5.46807 3.62183 7.14458 1.94532 9.21028 1.94532C11.276 1.94532 12.9525 3.62183 12.9525 5.68753C12.9525 7.75323 11.276 9.42974 9.21028 9.42974ZM9.21028 3.44221C7.96787 3.44221 6.96496 4.44512 6.96496 5.68753C6.96496 6.92995 7.96787 7.93286 9.21028 7.93286C10.4527 7.93286 11.4556 6.92995 11.4556 5.68753C11.4556 4.44512 10.4527 3.44221 9.21028 3.44221Z" fill="#79532A"/>
</svg>
