<svg width="25" height="25" viewBox="0 0 25 25" fill="none" xmlns="http://www.w3.org/2000/svg">
<path d="M12.7488 11.4375C12.0183 11.4375 11.4315 12.0243 11.4315 12.7548C11.4315 13.4853 12.0183 14.072 12.7488 14.072C13.4792 14.072 14.066 13.4853 14.066 12.7548C14.066 12.0243 13.4792 11.4375 12.7488 11.4375ZM12.7488 0.779694C6.13852 0.779694 0.773682 6.14453 0.773682 12.7548C0.773682 19.365 6.13852 24.7298 12.7488 24.7298C19.359 24.7298 24.7238 19.365 24.7238 12.7548C24.7238 6.14453 19.359 0.779694 12.7488 0.779694ZM15.3713 15.3773L5.56371 19.9398L10.1262 10.1322L19.9338 5.56972L15.3713 15.3773Z" fill="#313D47"/>
</svg>
