<svg width="29" height="28" viewBox="0 0 29 28" fill="none" xmlns="http://www.w3.org/2000/svg">
<path d="M14.3701 13.0533C13.6396 13.0533 13.0528 13.64 13.0528 14.3705C13.0528 15.101 13.6396 15.6878 14.3701 15.6878C15.1006 15.6878 15.6874 15.101 15.6874 14.3705C15.6874 13.64 15.1006 13.0533 14.3701 13.0533ZM14.3701 2.39545C7.75985 2.39545 2.39502 7.76028 2.39502 14.3705C2.39502 20.9808 7.75985 26.3456 14.3701 26.3456C20.9803 26.3456 26.3452 20.9808 26.3452 14.3705C26.3452 7.76028 20.9803 2.39545 14.3701 2.39545ZM16.9926 16.9931L7.18505 21.5556L11.7476 11.748L21.5551 7.18548L16.9926 16.9931Z" fill="#313D47"/>
</svg>
