<svg width="14" height="13" viewBox="0 0 14 13" fill="none" xmlns="http://www.w3.org/2000/svg">
<path d="M7.43354 10.2044L7.17529 10.0482L6.91677 10.2039L3.81073 12.075L3.80984 12.0756C3.6214 12.1896 3.39059 12.0232 3.44056 11.8083L4.2638 8.27586L4.33227 7.98205L4.10427 7.78449L1.35749 5.40445L1.35731 5.4043C1.18913 5.2587 1.28278 4.98796 1.49632 4.97098L1.49632 4.97098L1.49897 4.97076L5.11394 4.6639L5.4141 4.63842L5.53186 4.36115L6.94642 1.03058L6.94642 1.03058L6.94724 1.02864C7.03018 0.831044 7.31937 0.831044 7.40231 1.02864L7.40297 1.03021L8.81753 4.36826L8.93517 4.64588L9.23561 4.67138L12.8506 4.97824L12.8506 4.97825L12.8532 4.97846C13.0668 4.99545 13.1604 5.26618 12.9922 5.41178L12.9921 5.41193L10.2453 7.79198L10.0173 7.98953L10.0858 8.28334L10.909 11.8158C10.959 12.0307 10.7281 12.1971 10.5397 12.0831L10.5396 12.083L7.43354 10.2044Z" fill="#79532A"/>
<path d="M7.43354 10.2044L7.17529 10.0482L6.91677 10.2039L3.81073 12.075L3.80984 12.0756C3.6214 12.1896 3.39059 12.0232 3.44056 11.8083L4.2638 8.27586L4.33227 7.98205L4.10427 7.78449L1.35749 5.40445L1.35731 5.4043C1.18913 5.2587 1.28278 4.98796 1.49632 4.97098L1.49632 4.97098L1.49897 4.97076L5.11394 4.6639L5.4141 4.63842L5.53186 4.36115L6.94642 1.03058L6.94642 1.03058L6.94724 1.02864C7.03018 0.831044 7.31937 0.831044 7.40231 1.02864L7.40297 1.03021L8.81753 4.36826L8.93517 4.64588L9.23561 4.67138L12.8506 4.97824L12.8506 4.97825L12.8532 4.97846C13.0668 4.99545 13.1604 5.26618 12.9922 5.41178L12.9921 5.41193L10.2453 7.79198L10.0173 7.98953L10.0858 8.28334L10.909 11.8158C10.959 12.0307 10.7281 12.1971 10.5397 12.0831L10.5396 12.083L7.43354 10.2044Z" stroke="black"/>
<path d="M7.43354 10.2044L7.17529 10.0482L6.91677 10.2039L3.81073 12.075L3.80984 12.0756C3.6214 12.1896 3.39059 12.0232 3.44056 11.8083L4.2638 8.27586L4.33227 7.98205L4.10427 7.78449L1.35749 5.40445L1.35731 5.4043C1.18913 5.2587 1.28278 4.98796 1.49632 4.97098L1.49632 4.97098L1.49897 4.97076L5.11394 4.6639L5.4141 4.63842L5.53186 4.36115L6.94642 1.03058L6.94642 1.03058L6.94724 1.02864C7.03018 0.831044 7.31937 0.831044 7.40231 1.02864L7.40297 1.03021L8.81753 4.36826L8.93517 4.64588L9.23561 4.67138L12.8506 4.97824L12.8506 4.97825L12.8532 4.97846C13.0668 4.99545 13.1604 5.26618 12.9922 5.41178L12.9921 5.41193L10.2453 7.79198L10.0173 7.98953L10.0858 8.28334L10.909 11.8158C10.959 12.0307 10.7281 12.1971 10.5397 12.0831L10.5396 12.083L7.43354 10.2044Z" stroke="black" stroke-opacity="0.2"/>
</svg>
