<svg width="19" height="19" viewBox="0 0 19 19" fill="none" xmlns="http://www.w3.org/2000/svg">
<path d="M5.72864 12.1144C5.34453 12.1707 4.71222 12.2755 4.29159 11.7982C3.87095 11.321 3.50719 10.1687 3.34732 9.1388C3.11141 7.62091 3.34553 6.34164 4.00597 5.53689C4.39517 5.06296 4.90593 4.78842 5.48314 4.74471C5.97743 4.70669 6.71601 4.90009 7.42915 6.03776C7.87584 6.7506 8.21564 7.69756 8.36144 8.63553C8.53748 9.76781 8.70903 10.9761 8.10876 11.4093C7.77015 11.6539 7.52705 11.7387 6.95253 11.8755C6.4801 11.9878 6.11305 12.0578 5.72864 12.1144ZM5.04544 13.0883L8.30546 12.4159C8.58089 12.359 8.80184 12.5105 8.90423 12.9644C9.24014 14.4541 8.75873 16.2366 7.25102 16.2366C5.82325 16.2366 4.8718 14.6092 4.71642 13.7344C4.64546 13.3377 4.74665 13.1497 5.04544 13.0883ZM12.0172 9.00168C11.4427 8.86546 11.1996 8.78014 10.861 8.53554C10.2607 8.10233 10.4323 6.894 10.6083 5.76173C10.7541 4.82375 11.0939 3.87559 11.5406 3.16395C12.2532 2.02629 12.9917 1.83288 13.4866 1.8709C14.0633 1.91491 14.5743 2.18885 14.9635 2.66278C15.6245 3.46753 15.8587 4.74681 15.6222 6.26469C15.462 7.29458 15.0994 8.44303 14.6764 8.92414C14.2534 9.40526 13.6246 9.29658 13.2393 9.24029C12.854 9.18401 12.4894 9.11365 12.0172 9.00168ZM13.924 10.2142L10.664 9.54177C10.3886 9.48489 10.1676 9.63638 10.0652 10.0903C9.72964 11.58 10.211 13.3625 11.7188 13.3625C13.1465 13.3625 14.098 11.7351 14.2534 10.8603C14.324 10.4636 14.2228 10.2756 13.924 10.2142Z" fill="#02131B"/>
</svg>
